HIERARCHY
ROOT Hips
{
  OFFSET -6.66184 96.5593 59.7563
  CHANNELS 6 Xposition Yposition Zposition Zrotation Xrotation Yrotation
  JOINT Chest
  {
    OFFSET 0 10.5691 -1.07959
    CHANNELS 6 Xposition Yposition Zposition Zrotation Xrotation Yrotation
    JOINT Chest2
    {
      OFFSET 0 11.6675 1.08235
      CHANNELS 6 Xposition Yposition Zposition Zrotation Xrotation Yrotation
      JOINT Chest3
      {
        OFFSET 0 10.5876 0
        CHANNELS 6 Xposition Yposition Zposition Zrotation Xrotation Yrotation
        JOINT Chest4
        {
          OFFSET 0 10.5876 0
          CHANNELS 6 Xposition Yposition Zposition Zrotation Xrotation Yrotation
          JOINT Neck
          {
            OFFSET 0 14.88 0
            CHANNELS 6 Xposition Yposition Zposition Zrotation Xrotation Yrotation
            JOINT Head
            {
              OFFSET 0 9.61472 2.16553
              CHANNELS 6 Xposition Yposition Zposition Zrotation Xrotation Yrotation
              End Site
              {
                OFFSET 0 0 0
              }
            }
          }
          JOINT RightCollar
          {
            OFFSET -3.23953 8.30385 0
            CHANNELS 6 Xposition Yposition Zposition Zrotation Xrotation Yrotation
            JOINT RightShoulder
            {
              OFFSET -15.1725 0 0
              CHANNELS 6 Xposition Yposition Zposition Zrotation Xrotation Yrotation
              JOINT RightElbow
              {
                OFFSET -32.4113 0 0
                CHANNELS 6 Xposition Yposition Zposition Zrotation Xrotation Yrotation
                JOINT RightWrist
                {
                  OFFSET -26.4919 0 1.0813
                  CHANNELS 6 Xposition Yposition Zposition Zrotation Xrotation Yrotation
                  End Site
                  {
                    OFFSET 0 0 0
                  }
                }
              }
            }
          }
          JOINT LeftCollar
          {
            OFFSET 3.23953 8.30385 0
            CHANNELS 6 Xposition Yposition Zposition Zrotation Xrotation Yrotation
            JOINT LeftShoulder
            {
              OFFSET 15.1725 0 0
              CHANNELS 6 Xposition Yposition Zposition Zrotation Xrotation Yrotation
              JOINT LeftElbow
              {
                OFFSET 32.4113 0 0
                CHANNELS 6 Xposition Yposition Zposition Zrotation Xrotation Yrotation
                JOINT LeftWrist
                {
                  OFFSET 26.4919 0 1.0813
                  CHANNELS 6 Xposition Yposition Zposition Zrotation Xrotation Yrotation
                  End Site
                  {
                    OFFSET 0 0 0
                  }
                }
              }
            }
          }
        }
      }
    }
  }
  JOINT RightHip
  {
    OFFSET -8.63673 0.00547028 0
    CHANNELS 6 Xposition Yposition Zposition Zrotation Xrotation Yrotation
    JOINT RightKnee
    {
      OFFSET 1.03189e-005 -44.4932 -2.13961
      CHANNELS 6 Xposition Yposition Zposition Zrotation Xrotation Yrotation
      JOINT RightAnkle
      {
        OFFSET 0 -43.4408 -3.54051
        CHANNELS 6 Xposition Yposition Zposition Zrotation Xrotation Yrotation
        JOINT RightToe
        {
          OFFSET 0 -8.3927 19.1252
          CHANNELS 6 Xposition Yposition Zposition Zrotation Xrotation Yrotation
          End Site
          {
            OFFSET 0 0 0
          }
        }
      }
    }
  }
  JOINT LeftHip
  {
    OFFSET 8.63673 0.00547028 0
    CHANNELS 6 Xposition Yposition Zposition Zrotation Xrotation Yrotation
    JOINT LeftKnee
    {
      OFFSET 0 -44.4933 -2.13958
      CHANNELS 6 Xposition Yposition Zposition Zrotation Xrotation Yrotation
      JOINT LeftAnkle
      {
        OFFSET 0 -43.4407 -3.54051
        CHANNELS 6 Xposition Yposition Zposition Zrotation Xrotation Yrotation
        JOINT LeftToe
        {
          OFFSET 0 -8.3927 19.1252
          CHANNELS 6 Xposition Yposition Zposition Zrotation Xrotation Yrotation
          End Site
          {
            OFFSET 0 0 0
          }
        }
      }
    }
  }
}
MOTION
Frames:	7
Frame Time:	0.0333333
-6.66463 96.5535 59.7535 -0.0102194 -0.00504828 -180 -2.66454e-015 10.5691 -1.07959 0.0195528 0.00732712 0.00933442 -8.88178e-016 11.6675 1.08235 0.0391094 0.00114511 0.0186673 -1.77636e-015 10.5876 -7.10543e-015 0.0391093 0.0011451 0.0186673 -1.77636e-015 10.5876 -7.10543e-015 0.0391093 0.00114511 0.0186673 -1.77636e-015 14.88 -2.13163e-014 -0.239212 -0.196592 -0.016116 -6.21725e-015 9.61472 2.16553 0.0354956 0.260493 -0.094016 -3.23953 8.30385 -7.10543e-015 2.84242e-017 0 1.2424e-017 -15.1725 -4.76837e-006 7.10543e-015 -3.08287 -25.8063 -2.21984 -32.4113 -3.26439e-006 -2.35587e-006 10.8391 -15.5665 2.23605 -26.4919 -4.37104e-006 1.0813 -0.36195 0.0274685 -9.91941 3.23953 8.30385 0 2.84242e-017 0 1.2424e-017 15.1725 -4.76837e-006 -1.42109e-014 1.33708 -25.0044 2.94497 32.4113 -5.02893e-006 -2.37179e-006 -7.81922 -2.33781 2.3377 26.4919 1.29862e-006 1.0813 8.17867 0.0116381 1.89135 -8.63673 0.00547028 0 0.0204556 -2.06295 -0.000315976 1.03189e-005 -44.4932 -2.13961 -0.0576396 0.233639 -0.0139115 -2.64368e-009 -43.4408 -3.54051 0.20957 1.83091 0.173443 -8.05113e-009 -8.3927 19.1252 0.041432 -0.0790401 -0.475974 8.63673 0.00547028 0 -0.0265382 -1.95401 -0.0128339 4.95924e-007 -44.4933 -2.13958 0.049494 0.0111825 -0.0135329 -4.88572e-007 -43.4407 -3.54051 -0.511446 1.90857 -0.283359 -6.14705e-008 -8.3927 19.1252 0.0883104 -0.331081 0.89158 
-6.67326 96.5425 59.7393 -0.0237631 -0.0210568 179.988 -1.77636e-015 10.5691 -1.07959 0.0753003 0.00732712 0.0357678 -8.88178e-016 11.6675 1.08235 0.150914 0.00114511 0.0713838 -2.66454e-015 10.5876 -7.10543e-015 0.150914 0.0011451 0.0713837 0 10.5876 0 0.150914 0.00114511 0.0713838 -1.77636e-015 14.88 -2.13163e-014 -1.12676 -0.694938 0.0143688 -5.32907e-015 9.61472 2.16553 0.514758 0.896688 -0.43199 -3.23953 8.30385 -7.10543e-015 -1.65395e-016 0 -0 -15.1725 -4.76837e-006 7.10543e-015 -3.62546 -25.9185 -2.5425 -32.4113 -3.26439e-006 -2.35587e-006 10.8339 -16.9512 2.243 -26.4919 -4.37104e-006 1.0813 0.232631 -0.0121679 -10.6057 3.23953 8.30385 0 -1.65395e-016 0 -0 15.1725 -4.76837e-006 -2.13163e-014 0.814586 -25.1876 2.73314 32.4113 -5.02893e-006 -2.37179e-006 -7.74875 -2.18797 2.33746 26.4919 1.29862e-006 1.0813 7.99006 0.00323673 1.77632 -8.63673 0.00547028 0 0.0953751 -2.25475 -0.0190403 1.03189e-005 -44.4932 -2.13961 -0.220491 0.609706 -0.0170832 -2.64368e-009 -43.4408 -3.54051 0.693114 1.71191 0.577811 -8.05113e-009 -8.3927 19.1252 0.0498862 -0.453043 -1.68189 8.63673 0.00547028 0 -0.0901308 -1.91326 0.00934781 4.95924e-007 -44.4933 -2.13958 0.17646 -0.0733766 -0.146867 -4.88572e-007 -43.4407 -3.54051 -1.67237 1.94796 -0.904215 -6.14705e-008 -8.3927 19.1252 0.566587 -1.3197 3.03521 
-6.67788 96.565 59.7193 0.028122 -0.0200282 179.935 -8.88178e-016 10.5691 -1.07959 0.0666437 0.00732712 0.0305941 -8.88178e-016 11.6675 1.08235 0.130899 0.00114511 0.0627729 -1.77636e-015 10.5876 0 0.130899 0.0011451 0.0627729 -8.88178e-016 10.5876 -7.10543e-015 0.130899 0.00114511 0.0627729 -1.77636e-015 14.8802 -1.42109e-014 -1.62185 -0.409655 0.251541 -5.77316e-015 9.61472 2.16553 1.63627 0.465603 -0.600297 -3.23953 8.30385 0 -1.90243e-017 -1.2424e-017 -2.48481e-017 -15.1725 -4.76837e-006 0 -3.40974 -26.419 -2.42241 -32.4113 -3.26439e-006 -2.35587e-006 11.0341 -22.3633 2.49287 -26.4919 -4.37104e-006 1.0813 -0.207538 0.0341154 -13.3556 3.23953 8.30385 7.10543e-015 -1.90243e-017 -1.2424e-017 -2.48481e-017 15.1725 -4.76837e-006 -2.13163e-014 0.921052 -25.4445 2.78371 32.4113 -5.02893e-006 -2.37179e-006 -7.65913 -2.16857 2.33743 26.4919 1.29862e-006 1.0813 8.02577 0.00307545 1.77335 -8.63673 0.00547028 -7.10543e-015 0.128478 -1.98153 -0.0340572 1.03189e-005 -44.4932 -2.13961 -0.1824 0.0445621 0.0466388 -2.64368e-009 -43.4408 -3.54051 0.353255 2.01993 0.1803 -8.05113e-009 -8.3927 19.1252 -0.144209 -0.598807 -0.939407 8.63673 0.00547028 -7.10543e-015 -0.046965 -1.91002 0.0983265 4.95924e-007 -44.4933 -2.13958 0.112022 -0.0426603 -0.353381 -4.88572e-007 -43.4407 -3.54051 -0.617843 2.05213 -0.11204 -6.14705e-008 -8.3927 19.1252 0.783667 -1.09283 1.41591 
-6.68964 96.5689 59.7087 0.0303802 -0.0146318 179.891 -8.88178e-016 10.5691 -1.07959 0.0667556 0.00732712 0.0284023 -8.88178e-016 11.6675 1.08235 0.12211 0.00114511 0.0630806 -1.77636e-015 10.5876 -7.10543e-015 0.12211 0.0011451 0.0630806 -1.77636e-015 10.5876 0 0.12211 0.00114511 0.0630806 -2.66454e-015 14.8799 -1.42109e-014 -1.56475 -0.325418 0.253629 -5.77316e-015 9.61472 2.16553 1.66884 0.407903 -0.590962 -3.23953 8.30385 7.10543e-015 4.13852e-017 0 -0 -15.1725 -4.76837e-006 0 -3.32184 -26.4368 -2.42549 -32.4113 -3.26439e-006 -2.35587e-006 10.3231 -12.468 1.74619 -26.4919 -4.37104e-006 1.0813 0.869521 -0.0558983 -8.19732 3.23953 8.30385 0 4.13852e-017 0 -0 15.1725 -4.76837e-006 -7.10543e-015 0.928651 -25.3518 2.8462 32.4113 -5.02893e-006 -2.37179e-006 -7.68045 -2.15174 2.3374 26.4919 1.29862e-006 1.0813 7.98566 0.00276682 1.76913 -8.63673 0.00547028 0 0.114134 -1.94 -0.0394089 1.03189e-005 -44.4932 -2.13961 -0.17726 -0.00879828 0.0127523 -2.64368e-009 -43.4408 -3.54051 0.426554 1.93218 0.342721 -8.05113e-009 -8.3927 19.1252 -0.0325161 -0.439092 -1.13098 8.63673 0.00547028 0 -0.0660834 -1.83542 0.0286218 4.95924e-007 -44.4933 -2.13958 0.123729 -0.154168 -0.34459 -4.88572e-007 -43.4407 -3.54051 -0.575758 2.08469 -0.102524 -6.14705e-008 -8.3927 19.1252 0.674866 -1.03888 1.58055 
-6.69528 96.5621 59.6979 0.0358216 -0.0370851 179.859 -1.77636e-015 10.5691 -1.07959 0.0679438 0.00732712 0.0263672 0 11.6675 1.08235 0.129561 0.00157652 0.051776 -2.66454e-015 10.5876 -1.42109e-014 0.129561 0.00157651 0.051776 -8.88178e-016 10.5876 -7.10543e-015 0.129561 0.00157653 0.051776 -2.66454e-015 14.88 -7.10543e-015 -1.50427 -0.189061 0.261973 -6.21725e-015 9.61472 2.16553 1.55777 0.191878 -0.537741 -3.23953 8.30385 0 2.4296e-017 -6.21202e-018 1.2424e-017 -15.1725 -4.76837e-006 -7.10543e-015 -3.27473 -26.3907 -2.33531 -32.4113 -3.26439e-006 -2.35587e-006 11.3588 -25.3107 2.85908 -26.4919 -4.37104e-006 1.0813 1.29183 -0.148512 -15.256 3.23953 8.30385 0 2.4296e-017 -6.21202e-018 1.2424e-017 15.1725 -4.76837e-006 -1.42109e-014 0.872605 -25.4623 2.9136 32.4113 -5.02893e-006 -2.37179e-006 -7.62906 -2.25055 2.33756 26.4919 1.29862e-006 1.0813 8.01578 0.0156198 1.95171 -8.63673 0.00547028 0 0.128411 -2.01302 -0.0543433 1.03189e-005 -44.4932 -2.13961 -0.205813 0.0977883 0.0606838 -2.64368e-009 -43.4408 -3.54051 0.517169 1.90318 0.444294 -8.05113e-009 -8.3927 19.1252 -0.0197089 -0.50241 -1.4064 8.63673 0.00547028 0 -0.0501191 -1.8957 0.156135 4.95924e-007 -44.4933 -2.13958 0.0926368 -0.0494383 -0.460813 -4.88572e-007 -43.4407 -3.54051 -0.38766 2.04389 -0.0491641 -6.14705e-008 -8.3927 19.1252 0.690898 -1.0033 1.38934 
-6.71288 96.5695 59.7032 0.0369039 -0.0513703 179.803 -8.88178e-016 10.5691 -1.07959 0.0682878 0.00732712 0.0246001 -8.88178e-016 11.6675 1.08235 0.136719 0.00598027 0.0510539 -2.66454e-015 10.5876 0 0.136719 0.00598026 0.0510539 0 10.5876 0 0.136719 0.00598029 0.0510538 -2.66454e-015 14.8803 -1.42109e-014 -1.47741 -0.242282 0.290224 -4.88498e-015 9.61472 2.16553 1.51652 0.194241 -0.492771 -3.23953 8.30385 0 6.22203e-017 0 -3.10601e-018 -15.1725 -4.76837e-006 0 -3.22069 -26.4071 -2.25903 -32.4113 -3.26439e-006 -2.35587e-006 10.9506 -21.0892 2.39847 -26.4919 -4.37104e-006 1.0813 1.97473 -0.204987 -13.0375 3.23953 8.30385 7.10543e-015 6.22203e-017 0 -3.10601e-018 15.1725 -4.76837e-006 -2.13163e-014 0.812534 -25.4453 2.95469 32.4113 -5.02893e-006 -2.37179e-006 -7.65162 -2.33223 2.33769 26.4919 1.29862e-006 1.0813 8.07134 0.0234016 2.061 -8.63673 0.00547028 0 0.104744 -2.04508 -0.0215462 1.03189e-005 -44.4932 -2.13961 -0.181778 0.130207 0.135834 -2.64368e-009 -43.4408 -3.54051 0.532982 1.89949 0.44463 -8.05113e-009 -8.3927 19.1252 -0.0240034 -0.526422 -1.45474 8.63673 0.00547028 7.10543e-015 -0.0810994 -1.89026 0.190595 4.95924e-007 -44.4933 -2.13958 0.113126 -0.0867771 -0.511843 -4.88572e-007 -43.4407 -3.54051 -0.275353 2.08819 0.0563865 -6.14705e-008 -8.3927 19.1252 0.72953 -1.03099 1.36267 
-6.72752 96.5617 59.6821 0.0177691 -0.0396299 179.781 -1.77636e-015 10.5691 -1.07959 0.0661953 0.0071472 0.023212 -8.88178e-016 11.6675 1.08235 0.135935 0.0163096 0.0545092 -1.77636e-015 10.5876 0 0.135935 0.0163095 0.0545092 -8.88178e-016 10.5876 0 0.135935 0.0163096 0.0545092 -8.88178e-016 14.8802 -1.42109e-014 -1.53993 -0.261805 0.297479 -5.77316e-015 9.61472 2.16553 1.62054 0.220203 -0.526632 -3.23953 8.30385 0 2.18319e-016 0 -6.21202e-018 -15.1725 -4.76837e-006 -7.10543e-015 -3.14671 -26.3704 -2.26059 -32.4113 -3.26439e-006 -2.35587e-006 10.6861 -17.378 2.13064 -26.4919 -4.37104e-006 1.0813 0.519355 -0.0317884 -11.031 3.23953 8.30385 -7.10543e-015 2.18319e-016 0 -6.21202e-018 15.1725 -4.76837e-006 -7.10543e-015 0.746992 -25.3447 2.92339 32.4113 -5.02893e-006 -2.37179e-006 -7.69314 -2.30529 2.33765 26.4919 1.29862e-006 1.0813 8.06064 0.0198118 2.00336 -8.63673 0.00547028 -7.10543e-015 0.0470695 -2.03078 0.0159497 1.03189e-005 -44.4932 -2.13961 -0.153106 0.168466 0.0451417 -2.64368e-009 -43.4408 -3.54051 0.638413 1.83632 0.629605 -8.05113e-009 -8.3927 19.1252 -0.00954145 -0.54315 -1.59567 8.63673 0.00547028 0 -0.0976817 -1.85326 0.155959 4.95924e-007 -44.4933 -2.13958 0.109865 -0.122875 -0.390577 -4.88572e-007 -43.4407 -3.54051 -0.281835 2.09843 0.0245195 -6.14705e-008 -8.3927 19.1252 0.826746 -1.09583 1.27661 
